<svg width="256" height="256" viewBox="0 0 256 256" fill="none" xmlns="http://www.w3.org/2000/svg"><rect width="256" height="256" rx="30" fill="#1652F0"/><path fill-rule="evenodd" clip-rule="evenodd" d="M163.545 164.946c-6.478 2.377-13.307 3.63-20.704 3.63-25.817 0-43.831-15.726-43.831-40.434 0-26.112 18.612-40.434 42.625-40.434 7.057 0 13.909 1.135 20.567 3.63 3.225-7.383 7.47-14.09 12.615-20C163.782 65.822 152.829 63 138.941 63 99.913 63 69 87.984 69 128.142 69 168.016 98.412 193 138.941 193c13.628 0 26.13-2.678 38.059-8.682a77.313 77.313 0 0 1-13.455-19.372z" fill="#fff"/></svg>