<svg xmlns="http://www.w3.org/2000/svg" width="419.02" height="90" viewBox="0 0 419.02 90"><path fill="#00F2E6" d="M31.4 58.6l-8.3 10.25 8 14 16 2.94V70.85l-12-4zm31.39 0l12.31-1.75 7-13-3.61-12.44-11.39.44-1 20zM47.1 31.41l-2-17.56-23 10-6.4 7.56 6.4 9.44 16-9z"/><path fill="#00F2E6" d="M31.4 58.6c0-11.62 6.32-21.76 15.7-27.19a31.282 31.282 0 0 0-15.7-4.21C14.06 27.2 0 41.26 0 58.6S14.06 90 31.4 90c5.72 0 11.08-1.54 15.7-4.21-9.38-5.43-15.7-15.57-15.7-27.19z"/><path fill="#633EFF" d="M62.79 58.6c-10.06 5.81-22 5.41-31.39 0a31.172 31.172 0 0 0 4.2 15.7c8.67 15.02 27.87 20.16 42.89 11.49S98.65 57.91 89.98 42.9a31.212 31.212 0 0 0-11.5-11.49c0 10.84-5.62 21.38-15.69 27.19z"/><path fill="#F93AEB" d="M47.09 31.4c10.06 5.81 15.68 16.35 15.7 27.19 4.62-2.66 8.64-6.54 11.5-11.49 8.67-15.02 3.53-34.22-11.49-42.89S28.57.69 19.9 15.7a31.172 31.172 0 0 0-4.2 15.7c9.39-5.4 21.33-5.81 31.39 0z"/><path d="M167.92 19.77c0 4.8-3.38 8.18-7.95 8.18h-1.75c.06.45.4 1.07.62 1.52L167.7 46h-4.68l-7.73-14.5c-.68-1.24-1.13-2.37-1.35-3.55h-8.41V46h-4.23V6h18.67c4.57 0 7.95 3.44 7.95 8.24v5.53zm-4.23-5.53c0-2.6-1.52-4.34-3.61-4.34h-14.56v14.16h14.5c2.14 0 3.67-1.69 3.67-4.29v-5.53zm33.17 14.55c0 2.82-1.75 4.51-4.29 4.51h-14.5v4.63c0 2.65 1.52 4.4 3.72 4.4h12.92V46H181.9c-4.46 0-7.79-3.33-7.79-8.07V26.08c0-4.74 3.27-8.07 7.73-8.07h7.17c4.46 0 7.84 3.33 7.84 8.07v2.71zm-4-2.65c0-2.65-1.52-4.46-3.72-4.46h-7.28c-2.2 0-3.78 1.75-3.78 4.4v3.55h14.78v-3.49zm29.22 15.01l-.79 1.52c-1.3 2.54-2.82 3.33-5.36 3.33h-11.9v-3.67h11.51c1.24 0 1.75-.45 2.31-1.47l.73-1.35c.34-.62.57-1.35.57-2.14l-13.37-7.39c-1.81-1.01-2.71-2.09-2.71-4.06 0-.9.34-1.75 1.07-3.16l.79-1.52c1.3-2.48 2.82-3.22 5.36-3.22h11.57v3.67h-11.17c-1.24 0-1.75.28-2.31 1.35l-.73 1.41c-.4.73-.56 1.24-.56 1.98l13.26 7.39c1.92 1.07 2.82 2.09 2.82 4.06-.02.9-.36 1.86-1.09 3.27zM238.67 46c-1.92 0-3.5-.96-4.57-2.99l-.73-1.41c-.51-.96-.62-1.69-.62-3.16V21.68h-5.92v-3.67h5.92v-6.38h3.95v6.38h8.91v3.67h-8.91v16.76c0 .79.17 1.41.45 1.97l.45.85c.39.68 1.02 1.07 1.8 1.07h6.21V46h-6.94zm53.14 0V27.89h-18.84V46h-4.23V6h4.23v18h18.84V6h4.23v40h-4.23zm23.35 0c-3.22 0-5.3-1.41-6.77-4.12l-3.1-5.81c-.73-1.35-1.07-2.59-1.07-4.06 0-1.41.4-2.71 1.13-4.06l3.1-5.87c1.47-2.82 3.84-4.06 6.83-4.06h4.63c2.99 0 5.36 1.24 6.83 4.06l3.1 5.87c.73 1.35 1.13 2.65 1.13 4.06 0 1.47-.34 2.71-1.07 4.06l-3.1 5.81c-1.47 2.71-3.55 4.12-6.77 4.12h-4.87zm4.85-3.67c1.64 0 2.54-.73 3.38-2.31l3.05-5.87c.4-.79.56-1.35.56-2.14 0-.73-.17-1.47-.56-2.2l-3.1-5.81c-.79-1.47-1.8-2.31-3.55-2.31h-4.4c-1.75 0-2.76.85-3.55 2.31l-3.1 5.81c-.39.73-.56 1.47-.56 2.2 0 .79.17 1.35.56 2.14l3.05 5.87c.85 1.58 1.75 2.31 3.39 2.31h4.83zM346.98 46c-3.22 0-5.3-1.41-6.77-4.12l-3.1-5.81c-.73-1.35-1.07-2.59-1.07-4.06 0-1.41.4-2.71 1.13-4.06l3.1-5.87c1.47-2.82 3.84-4.06 6.83-4.06h4.63c2.99 0 5.36 1.24 6.83 4.06l3.1 5.87c.73 1.35 1.13 2.65 1.13 4.06 0 1.47-.34 2.71-1.07 4.06l-3.1 5.81c-1.47 2.71-3.55 4.12-6.77 4.12h-4.87zm4.85-3.67c1.64 0 2.54-.73 3.38-2.31l3.05-5.87c.4-.79.56-1.35.56-2.14 0-.73-.17-1.47-.56-2.2l-3.1-5.81c-.79-1.47-1.81-2.31-3.55-2.31h-4.4c-1.75 0-2.76.85-3.55 2.31l-3.1 5.81c-.39.73-.56 1.47-.56 2.2 0 .79.17 1.35.56 2.14l3.05 5.87c.85 1.58 1.75 2.31 3.39 2.31h4.83zm34.86-12.41c3.22.85 5.25 3.67 5.25 7.45V46h-3.95v-8.63c0-2.48-1.3-4.06-3.5-4.06h-10.16V46h-3.95V6h3.95v23.64h8.12l6.26-11.62H393l-6.31 11.9zm31.26 11.23l-.79 1.52c-1.3 2.54-2.82 3.33-5.36 3.33h-11.9v-3.67h11.51c1.24 0 1.75-.45 2.31-1.47l.73-1.35c.34-.62.56-1.35.56-2.14l-13.37-7.39c-1.81-1.01-2.71-2.09-2.71-4.06 0-.9.34-1.75 1.07-3.16l.79-1.52c1.3-2.48 2.82-3.22 5.36-3.22h11.57v3.67h-11.17c-1.24 0-1.75.28-2.31 1.35l-.73 1.41c-.4.73-.56 1.24-.56 1.98l13.26 7.39c1.92 1.07 2.82 2.09 2.82 4.06-.01.9-.35 1.86-1.08 3.27zM148.41 78.51c-.63 1.17-1.51 1.89-2.9 1.89h-4.21V67.63h4.25c1.31 0 2.21.65 2.86 1.85l1.42 2.68c.31.59.49 1.17.49 1.82 0 .65-.18 1.24-.49 1.84l-1.42 2.69zm.28-3.33c.22-.41.29-.77.29-1.19 0-.41-.07-.76-.29-1.17l-1.42-2.7c-.41-.77-.97-1.24-1.87-1.24h-2.75v10.28h2.86c.83 0 1.33-.47 1.76-1.28l1.42-2.7zm11.13-.27c0 .9-.56 1.44-1.37 1.44h-4.63v1.48c0 .85.49 1.4 1.19 1.4h4.12v1.17h-4.09c-1.42 0-2.48-1.06-2.48-2.57v-3.78c0-1.51 1.04-2.57 2.47-2.57h2.29c1.42 0 2.5 1.06 2.5 2.57v.86zm-1.28-.85c0-.85-.49-1.42-1.19-1.42h-2.32c-.7 0-1.21.56-1.21 1.4v1.13h4.72v-1.11zm5.96 6.34c-.61 0-1.12-.31-1.46-.95l-.23-.45c-.16-.31-.2-.54-.2-1.01V67.63h1.26v10.35c0 .25.05.45.14.63l.14.27c.13.22.32.34.58.34h1.62v1.17h-1.85zm4.78 0v-7.76h-2.84v-1.17h3.04c.76 0 1.06.41 1.06 1.03v7.9h-1.26zm-.21-11.06v-1.71h1.69v1.71h-1.69zm12.08 12.09c0 1.51-1.04 2.57-2.47 2.57h-3.85v-1.17h3.85c.7 0 1.21-.54 1.21-1.39v-2.88l-.23.41c-.49.85-1.08 1.42-2.11 1.42h-1.51c-1.42 0-2.48-1.06-2.48-2.57v-3.8c0-1.51 1.06-2.56 2.48-2.56h1.53c1.03 0 1.67.56 2.12 1.42l.29.56.2-1.98h.97v9.97zm-1.42-6.18l-.97-1.85c-.27-.5-.58-.76-1.1-.76H176c-.7 0-1.19.54-1.19 1.39v3.8c0 .85.49 1.4 1.19 1.4h1.67c.52 0 .81-.23 1.08-.74l.99-1.85c.11-.2.14-.43.14-.68s-.05-.51-.15-.71zM190 80.4v-6.46c0-.79-.41-1.3-1.12-1.3h-.77c-.65 0-.83.16-1.17.79l-1.3 2.41v4.56h-1.26V67.63h1.26v5.98l.4-.76c.47-.9 1.06-1.39 2.09-1.39h.74c1.42 0 2.39.99 2.39 2.47v6.46H190zm6.93 0c-.61 0-1.12-.31-1.46-.95l-.23-.45c-.16-.31-.2-.54-.2-1.01v-5.35h-1.89v-1.17h1.89v-2.03h1.26v2.03h2.84v1.17h-2.84v5.35c0 .25.05.45.14.63l.14.27c.13.22.32.34.58.34h1.98v1.17h-2.21zm6.82-7.76v7.76h-1.26v-7.76h-2.32v-1.17h2.32v-1.42c0-.47.04-.7.2-1.01l.23-.45c.34-.65.85-.95 1.46-.95h2.68v1.17h-2.45c-.29 0-.45.13-.58.34l-.16.27c-.11.18-.13.38-.13.63v1.42h3.31v1.17h-3.3zm10.71 7.76l-.18-2.3-.47.92c-.47.9-1.06 1.39-2.09 1.39h-.74c-1.42 0-2.4-.99-2.4-2.47v-6.46h1.26v6.46c0 .79.41 1.3 1.12 1.3h.77c.65 0 .83-.16 1.17-.79l1.3-2.41v-4.56h1.26v8.93h-1zm6.14 0c-.61 0-1.12-.31-1.46-.95l-.23-.45c-.16-.31-.2-.54-.2-1.01V67.63h1.26v10.35c0 .25.05.45.14.63l.14.27c.13.22.32.34.58.34h1.62v1.17h-1.85zm15.63-1.89c-.63 1.17-1.51 1.89-2.9 1.89h-4.21V67.63h4.25c1.31 0 2.21.65 2.86 1.85l1.42 2.68c.31.59.49 1.17.49 1.82 0 .65-.18 1.24-.49 1.84l-1.42 2.69zm.28-3.33c.22-.41.29-.77.29-1.19 0-.41-.07-.76-.29-1.17l-1.42-2.7c-.41-.77-.97-1.24-1.87-1.24h-2.75v10.28h2.86c.83 0 1.33-.47 1.76-1.28l1.42-2.7zm9.31 5.22l-.2-1.82-.2.4c-.43.86-1.15 1.42-2.18 1.42h-1.01c-1.42 0-2.39-.99-2.39-2.47v-.31c0-1.48.97-2.45 2.39-2.45h3.29v-1.13c0-.85-.5-1.4-1.21-1.4h-3.55v-1.17h3.55c1.42 0 2.47 1.04 2.47 2.56v6.37h-.96zm-3.6-4.07c-.7 0-1.12.5-1.12 1.3v.31c0 .79.41 1.3 1.12 1.3h1.12c.52 0 .88-.22 1.22-.86l.79-1.48c.09-.18.18-.4.18-.56h-3.31zm10.24 4.07c-.61 0-1.12-.31-1.46-.95l-.23-.45c-.16-.31-.2-.54-.2-1.01v-5.35h-1.89v-1.17h1.89v-2.03h1.26v2.03h2.84v1.17h-2.84v5.35c0 .25.05.45.14.63l.14.27c.13.22.32.34.58.34h1.98v1.17h-2.21zm10.17 0l-.2-1.82-.2.4c-.43.86-1.15 1.42-2.18 1.42h-1.01c-1.42 0-2.39-.99-2.39-2.47v-.31c0-1.48.97-2.45 2.39-2.45h3.29v-1.13c0-.85-.5-1.4-1.21-1.4h-3.55v-1.17h3.55c1.42 0 2.47 1.04 2.47 2.56v6.37h-.96zm-3.6-4.07c-.7 0-1.12.5-1.12 1.3v.31c0 .79.41 1.3 1.12 1.3h1.12c.52 0 .88-.22 1.22-.86l.79-1.48c.09-.18.18-.4.18-.56h-3.31zm13.75-7.45v4.48h5.11v1.24h-5.11v5.8h-1.35V68.88c0-.76.34-1.24 1.19-1.24h6.28v1.24h-6.12zm14.73 6.03c0 .9-.56 1.44-1.37 1.44h-4.63v1.48c0 .85.49 1.4 1.19 1.4h4.12v1.17h-4.09c-1.42 0-2.48-1.06-2.48-2.57v-3.78c0-1.51 1.04-2.57 2.47-2.57h2.29c1.42 0 2.5 1.06 2.5 2.57v.86zm-1.28-.85c0-.85-.49-1.42-1.19-1.42h-2.32c-.7 0-1.21.56-1.21 1.4v1.13h4.72v-1.11zm6.59 6.34c-.61 0-1.12-.31-1.46-.95l-.23-.45c-.16-.31-.2-.54-.2-1.01v-5.35h-1.89v-1.17h1.89v-2.03h1.26v2.03h2.84v1.17h-2.84v5.35c0 .25.05.45.14.63l.14.27c.13.22.32.34.58.34h1.98v1.17h-2.21zm7.5 0c-1.03 0-1.69-.45-2.16-1.31l-.99-1.85a2.63 2.63 0 0 1-.34-1.3c0-.45.13-.86.36-1.3l.99-1.87c.47-.9 1.22-1.3 2.18-1.3h2.97v1.17h-2.93c-.56 0-.88.27-1.13.74l-.99 1.85c-.13.23-.18.47-.18.7 0 .25.05.43.18.68l.97 1.87c.27.5.56.74 1.08.74h2.79v1.17h-2.8zm11.24 0v-6.46c0-.79-.41-1.3-1.12-1.3h-.77c-.65 0-.83.16-1.17.79l-1.3 2.41v4.56h-1.26V67.63h1.26v5.98l.4-.76c.47-.9 1.06-1.39 2.09-1.39h.74c1.42 0 2.39.99 2.39 2.47v6.46h-1.26zm5.63 0v-7.76h-2.84v-1.17h3.04c.76 0 1.06.41 1.06 1.03v7.9h-1.26zm-.22-11.06v-1.71h1.69v1.71h-1.69zm10.37 11.06v-6.46c0-.79-.41-1.3-1.12-1.3h-.77c-.65 0-.83.16-1.17.79l-1.3 2.41v4.56h-1.26v-8.93h1.01l.18 2.3.47-.92c.47-.9 1.06-1.39 2.09-1.39h.74c1.42 0 2.39.99 2.39 2.47v6.46h-1.26zm11.74 1.03c0 1.51-1.04 2.57-2.47 2.57h-3.85v-1.17h3.85c.7 0 1.21-.54 1.21-1.39v-2.88l-.23.41c-.49.85-1.08 1.42-2.11 1.42h-1.51c-1.42 0-2.48-1.06-2.48-2.57v-3.8c0-1.51 1.06-2.56 2.48-2.56h1.53c1.03 0 1.67.56 2.12 1.42l.29.56.2-1.98h.97v9.97zm-1.42-6.18l-.97-1.85c-.27-.5-.58-.76-1.1-.76h-1.66c-.7 0-1.19.54-1.19 1.39v3.8c0 .85.49 1.4 1.19 1.4h1.67c.52 0 .81-.23 1.08-.74l.99-1.85c.11-.2.14-.43.14-.68s-.05-.51-.15-.71z"/></svg>