<svg xmlns="http://www.w3.org/2000/svg" width="94.2" height="90" viewBox="0 0 94.2 90"><path fill="#00F2E6" d="M31.4 58.6l-8.3 10.25 8 14 16 2.94V70.85l-12-4zm31.39 0l12.31-1.75 7-13-3.61-12.44-11.39.44-1 20zM47.1 31.41l-2-17.56-23 10-6.4 7.56 6.4 9.44 16-9z"/><path fill="#00F2E6" d="M31.4 58.6c0-11.62 6.32-21.76 15.7-27.19a31.282 31.282 0 0 0-15.7-4.21C14.06 27.2 0 41.26 0 58.6S14.06 90 31.4 90c5.72 0 11.08-1.54 15.7-4.21-9.38-5.43-15.7-15.57-15.7-27.19z"/><path fill="#633EFF" d="M62.79 58.6c-10.06 5.81-22 5.41-31.39 0a31.172 31.172 0 0 0 4.2 15.7c8.67 15.02 27.87 20.16 42.89 11.49S98.65 57.91 89.98 42.9a31.212 31.212 0 0 0-11.5-11.49c0 10.84-5.62 21.38-15.69 27.19z"/><path fill="#F93AEB" d="M47.09 31.4c10.06 5.81 15.68 16.35 15.7 27.19 4.62-2.66 8.64-6.54 11.5-11.49 8.67-15.02 3.53-34.22-11.49-42.89S28.57.69 19.9 15.7a31.172 31.172 0 0 0-4.2 15.7c9.39-5.4 21.33-5.81 31.39 0z"/></svg>